<!DOCTYPE svg PUBLIC "-//W3C//DTD SVG 1.1//EN" "http://www.w3.org/Graphics/SVG/1.1/DTD/svg11.dtd">
<!-- Uploaded to: SVG Repo, www.svgrepo.com, Transformed by: SVG Repo Mixer Tools -->
<svg version="1.1" id="Layer_1" xmlns="http://www.w3.org/2000/svg" xmlns:xlink="http://www.w3.org/1999/xlink" viewBox="0 0 512 512" xml:space="preserve" width="64px" height="64px" fill="#000000" transform="matrix(-1, 0, 0, -1, 0, 0)">
<g id="SVGRepo_bgCarrier" stroke-width="0"/>
<g id="SVGRepo_tracerCarrier" stroke-linecap="round" stroke-linejoin="round"/>
<g id="SVGRepo_iconCarrier"> <path style="fill:#00A5FF;" d="M226.391,219.194L50.039,0v512h411.921L226.391,219.194z M143.794,421.888V245.85l82.597,102.667 l59.031,73.371L143.794,421.888L143.794,421.888z"/> <g> <rect x="50.039" y="135.23" style="fill:#75FDF4;" width="51.965" height="31.311"/> <rect x="50.039" y="192.027" style="fill:#75FDF4;" width="51.965" height="31.311"/> <rect x="50.039" y="248.825" style="fill:#75FDF4;" width="51.965" height="31.311"/> <rect x="50.039" y="305.622" style="fill:#75FDF4;" width="51.965" height="31.311"/> <rect x="50.039" y="362.409" style="fill:#75FDF4;" width="51.965" height="31.311"/> <rect x="50.039" y="420.156" style="fill:#75FDF4;" width="51.965" height="31.311"/> </g> <polygon style="fill:#0087FF;" points="461.961,512 226.391,512 226.391,421.888 285.421,421.888 226.391,348.517 226.391,219.194 "/> </g>
</svg>